<svg width="35" height="35" viewBox="0 0 35 35" fill="none" xmlns="http://www.w3.org/2000/svg">
<g id="8665646_phone_communication_icon 1" clip-path="url(#clip0_1_306)">
<path id="Vector" d="M34.9453 26.4551L33.356 33.3457C33.1327 34.3199 32.2766 35.0014 31.2737 35.0014C14.0273 35 0 20.9727 0 3.72562C0 2.72347 0.681475 1.86625 1.65566 1.64408L8.54629 0.0547237C9.5498 -0.177835 10.5752 0.343063 10.9922 1.2934L14.1723 8.71039C14.544 9.58402 14.2933 10.6019 13.5584 11.2021L9.87793 14.1573C12.2008 18.8891 16.048 22.7364 20.7812 25.0606L23.7945 21.3828C24.3884 20.6459 25.414 20.391 26.2876 20.7693L33.7046 23.9487C34.5967 24.418 35.1777 25.4571 34.9453 26.4551Z" fill="white"/>
</g>
<defs>
<clipPath id="clip0_1_306">
<rect width="35" height="35" fill="white"/>
</clipPath>
</defs>
</svg>
