<?xml version="1.0" encoding="UTF-8" standalone="no"?> <svg id="Layer_1" data-name="Layer 1" xmlns="http://www.w3.org/2000/svg" viewBox="0 0 64 64"><title>magic</title><path d="M28.06,33.31a1,1,0,0,1-.7-.3l-4.24-4.24a1,1,0,0,1,0-1.41l4.24-4.24a1,1,0,0,1,1.41,0L33,27.36a1,1,0,0,1,0,1.41L28.77,33A1,1,0,0,1,28.06,33.31Zm-2.82-5.25,2.82,2.83,2.83-2.83-2.83-2.82Z"/><path d="M54.93,60.18a1,1,0,0,1-.7-.3L27.36,33a1,1,0,0,1,0-1.41l4.24-4.24a1,1,0,0,1,1.41,0L59.88,54.23a1,1,0,0,1,0,1.41l-4.24,4.24A1,1,0,0,1,54.93,60.18ZM29.48,32.31,54.93,57.76l2.83-2.82L32.31,29.48Z"/><path d="M17.26,30a1,1,0,0,1-.59-.19l-4.17-3-4.17,3a1,1,0,0,1-1.17,0,1,1,0,0,1-.37-1.11l1.6-4.9-4.17-3A1,1,0,0,1,4.81,19H10l1.59-4.9a1,1,0,0,1,1.9,0L15,19h5.15a1,1,0,0,1,.59,1.81l-4.17,3,1.6,4.9a1,1,0,0,1-.37,1.11A1,1,0,0,1,17.26,30ZM12.5,24.59a1,1,0,0,1,.59.19l2.26,1.65-.86-2.67a1,1,0,0,1,.36-1.11L17.12,21h-2.8a1,1,0,0,1-1-.69l-.87-2.66-.87,2.66a1,1,0,0,1-1,.69H7.88l2.27,1.65a1,1,0,0,1,.36,1.11l-.86,2.67,2.26-1.65A1,1,0,0,1,12.5,24.59Z"/><path d="M44.8,23.24a1,1,0,0,1-.58-.2L41,20.71,37.78,23a1,1,0,0,1-1.17,0,1,1,0,0,1-.37-1.11l1.23-3.78-3.21-2.34A1,1,0,0,1,34.84,14h4l1.23-3.78a1,1,0,0,1,1.9,0L43.18,14h4a1,1,0,0,1,.58,1.81l-3.21,2.34,1.23,3.78A1,1,0,0,1,45.39,23,1,1,0,0,1,44.8,23.24ZM41,18.47a1.06,1.06,0,0,1,.59.19l1.31,1-.5-1.55A1,1,0,0,1,42.76,17l1.32-1H42.45a1,1,0,0,1-1-.69L41,13.76l-.5,1.55a1,1,0,0,1-1,.69H37.92l1.32,1a1,1,0,0,1,.36,1.11l-.5,1.55,1.31-1A1.06,1.06,0,0,1,41,18.47Z"/><path d="M26,13a1,1,0,0,1-1-1V6a1,1,0,0,1,2,0v6A1,1,0,0,1,26,13Z"/><path d="M29,10H23a1,1,0,0,1,0-2h6a1,1,0,0,1,0,2Z"/><path d="M16,44a1,1,0,0,1-1-1V37a1,1,0,0,1,2,0v6A1,1,0,0,1,16,44Z"/><path d="M19,41H13a1,1,0,0,1,0-2h6a1,1,0,0,1,0,2Z"/></svg>