<?xml version="1.0" encoding="UTF-8" standalone="no"?> <svg width="512" height="512" viewBox="0 0 512 512" fill="none" xmlns="http://www.w3.org/2000/svg">
<path d="M248.509 490.809C249.081 492.334 250.104 493.648 251.443 494.576C252.782 495.504 254.371 496.001 256 496.001C257.629 496.001 259.219 495.504 260.557 494.576C261.896 493.648 262.919 492.334 263.491 490.809L335.491 298.809C335.945 297.599 336.099 296.296 335.939 295.013C335.78 293.731 335.312 292.506 334.576 291.443C333.839 290.381 332.857 289.512 331.711 288.913C330.566 288.313 329.293 288 328 288H184C182.707 288 181.434 288.313 180.289 288.913C179.144 289.512 178.161 290.381 177.424 291.443C176.688 292.506 176.22 293.731 176.061 295.013C175.901 296.296 176.055 297.599 176.509 298.809L248.509 490.809ZM312.009 315.848L305.623 332.877L217.823 363.418L210.172 343.018L315.566 306.361L312.009 315.848ZM298.318 352.359L288.373 378.877L231.094 398.8L223.446 378.4L298.318 352.359ZM271.123 424.878L244.365 434.188L236.714 413.788L281.068 398.362L271.123 424.878ZM256 465.216L249.985 449.175L263.821 444.36L256 465.216ZM273.647 304L204.555 328.03L195.544 304H273.647Z" fill="black"/>
<path d="M226.5 111.7L254.679 134.244C256.098 135.378 257.86 135.997 259.677 135.997C261.493 135.997 263.256 135.378 264.674 134.244L292.854 111.7C297.587 107.893 301.045 102.733 302.765 96.908C304.485 91.0833 304.385 84.8722 302.479 79.1056C301.287 75.533 299.202 72.3242 296.422 69.7839C293.641 67.2436 290.258 65.456 286.592 64.5908C282.927 63.7256 279.101 63.8115 275.478 64.8404C271.855 65.8693 268.555 67.807 265.891 70.4696L259.677 76.6836L253.462 70.4686C250.798 67.806 247.498 65.8684 243.875 64.8396C240.252 63.8107 236.427 63.7249 232.761 64.5902C229.096 65.4555 225.712 67.2432 222.932 69.7836C220.151 72.324 218.066 75.5329 216.874 79.1056C214.968 84.8723 214.869 91.0834 216.589 96.9082C218.309 102.733 221.767 107.893 226.5 111.7V111.7ZM232.053 84.1666C232.382 83.1803 232.958 82.2944 233.725 81.593C234.493 80.8916 235.427 80.3981 236.439 80.1592C237.451 79.9204 238.507 79.9442 239.507 80.2283C240.507 80.5124 241.418 81.0474 242.153 81.7826L254.024 93.6536C254.767 94.3965 255.649 94.9858 256.62 95.3879C257.59 95.79 258.631 95.9969 259.681 95.9969C260.732 95.9969 261.772 95.79 262.743 95.3879C263.713 94.9858 264.595 94.3965 265.338 93.6536L277.208 81.7836C277.943 81.0484 278.854 80.5134 279.855 80.2293C280.855 79.9452 281.911 79.9214 282.923 80.1602C283.935 80.3991 284.869 80.8926 285.636 81.594C286.404 82.2954 286.979 83.1813 287.308 84.1676C288.188 86.8283 288.234 89.6942 287.44 92.3818C286.647 95.0694 285.051 97.4505 282.867 99.2066L259.685 117.753L236.49 99.2086C234.306 97.4526 232.711 95.0715 231.917 92.3839C231.123 89.6963 231.169 86.8304 232.048 84.1696L232.053 84.1666Z" fill="black"/>
<path d="M62.0201 81.6061L94.8071 88.9001C96.5804 89.2961 98.4357 89.076 100.067 88.2761C101.699 87.4763 103.009 86.1444 103.782 84.5001L118.092 54.1131C120.536 48.8902 121.326 43.0457 120.357 37.3614C119.389 31.677 116.707 26.424 112.672 22.3051C110.146 19.7402 107.006 17.8635 103.551 16.8532C100.096 15.8429 96.4394 15.7325 92.9294 16.5325C89.4194 17.3325 86.1722 19.0164 83.4959 21.4242C80.8197 23.832 78.8033 26.8839 77.6381 30.2901L75.1711 37.5001L67.9561 35.0331C64.5492 33.8685 60.9012 33.594 57.3585 34.2357C53.8157 34.8774 50.4957 36.414 47.7138 38.6997C44.9319 40.9853 42.7804 43.9441 41.4636 47.2951C40.1469 50.6461 39.7085 54.2781 40.1901 57.8461C40.9764 63.5583 43.4881 68.8942 47.3892 73.1402C51.2903 77.3862 56.3948 80.3399 62.0201 81.6061V81.6061ZM58.8671 50.4231C59.4704 50.1252 60.1268 49.9499 60.7983 49.9074C61.4698 49.8648 62.143 49.9558 62.7791 50.1751L77.5641 55.2301C79.5715 55.9167 81.7695 55.7777 83.6744 54.8438C85.5794 53.9098 87.0354 52.2575 87.7221 50.2501L92.7781 35.4641C93.0606 34.6383 93.5495 33.8983 94.1983 33.3146C94.8472 32.7308 95.6345 32.3225 96.4855 32.1286C97.3365 31.9346 98.2229 31.9614 99.0607 32.2063C99.8984 32.4513 100.66 32.9063 101.272 33.5281C103.018 35.3106 104.179 37.5839 104.598 40.0437C105.017 42.5036 104.675 45.0328 103.618 47.2931L92.0331 71.8931L65.4931 65.9931C63.0588 65.4453 60.8499 64.1671 59.1618 62.3296C57.4738 60.4922 56.3871 58.183 56.0471 55.7111C55.9011 54.6451 56.095 53.5602 56.6014 52.6108C57.1077 51.6614 57.9005 50.8958 58.8671 50.4231V50.4231Z" fill="black"/>
<path d="M178.567 256.691C179.133 257.583 179.87 258.354 180.736 258.96C181.602 259.566 182.579 259.995 183.611 260.221C184.643 260.447 185.71 260.466 186.75 260.278C187.79 260.089 188.782 259.697 189.669 259.123C190.556 258.549 191.321 257.805 191.919 256.934C192.517 256.063 192.936 255.081 193.153 254.047C193.37 253.013 193.379 251.946 193.182 250.908C192.984 249.87 192.582 248.882 192 248C189.49 244.12 189.889 241.525 191.032 236.026C192.291 229.965 194.016 221.664 187.832 212.105C181.648 202.546 173.368 200.719 167.322 199.384C161.837 198.173 159.307 197.474 156.797 193.595C154.287 189.716 154.687 187.121 155.83 181.623C157.089 175.562 158.814 167.262 152.63 157.704C146.446 148.146 138.167 146.319 132.122 144.985C126.638 143.774 124.108 143.076 121.599 139.198C119.09 135.32 119.489 132.726 120.632 127.228C121.892 121.166 123.618 112.865 117.432 103.309C116.266 101.559 114.458 100.339 112.398 99.9124C110.339 99.4859 108.195 99.8872 106.43 101.029C104.664 102.172 103.42 103.963 102.965 106.016C102.51 108.069 102.882 110.219 104 112C106.51 115.878 106.11 118.473 104.967 123.971C103.707 130.032 101.981 138.333 108.167 147.89C114.353 157.447 122.629 159.274 128.675 160.608C134.159 161.819 136.689 162.518 139.198 166.396C141.707 170.274 141.308 172.869 140.165 178.367C138.905 184.428 137.18 192.729 143.365 202.286C149.55 211.843 157.83 213.673 163.875 215.008C169.359 216.219 171.89 216.918 174.4 220.797C176.91 224.676 176.511 227.271 175.368 232.771C174.107 238.833 172.382 247.134 178.567 256.691Z" fill="black"/>
<path d="M480 128C475.742 132.258 472.148 132.479 466.709 132.814C460.345 133.206 451.629 133.743 443.088 142.284C434.547 150.825 434.01 159.541 433.618 165.905C433.283 171.345 433.062 174.938 428.804 179.196C424.546 183.454 420.952 183.676 415.512 184.011C409.148 184.402 400.433 184.939 391.892 193.481C383.351 202.023 382.812 210.739 382.419 217.104C382.083 222.544 381.862 226.139 377.603 230.397C373.344 234.655 369.749 234.878 364.309 235.214C357.945 235.606 349.229 236.144 340.687 244.686C339.937 245.428 339.341 246.31 338.932 247.282C338.524 248.255 338.313 249.298 338.309 250.353C338.306 251.408 338.511 252.453 338.914 253.428C339.316 254.403 339.906 255.289 340.652 256.034C341.398 256.78 342.284 257.371 343.259 257.773C344.234 258.175 345.279 258.381 346.333 258.378C347.388 258.375 348.432 258.163 349.404 257.755C350.377 257.347 351.259 256.751 352 256C356.259 251.741 359.854 251.52 365.294 251.184C371.658 250.791 380.374 250.254 388.916 241.711C397.458 233.168 397.996 224.453 398.389 218.089C398.724 212.648 398.946 209.054 403.205 204.795C407.464 200.536 411.057 200.315 416.496 199.98C422.86 199.588 431.576 199.051 440.118 190.51C448.66 181.969 449.196 173.253 449.588 166.889C449.923 161.449 450.145 157.855 454.402 153.599C458.659 149.343 462.253 149.119 467.693 148.784C474.057 148.393 482.772 147.855 491.313 139.314C492.063 138.573 492.66 137.691 493.068 136.718C493.476 135.746 493.688 134.702 493.691 133.648C493.694 132.593 493.489 131.548 493.087 130.573C492.685 129.598 492.094 128.712 491.348 127.966C490.602 127.221 489.717 126.63 488.742 126.228C487.767 125.825 486.722 125.62 485.667 125.623C484.612 125.626 483.569 125.838 482.596 126.246C481.624 126.654 480.741 127.25 480 128V128Z" fill="black"/>
<path d="M381.148 74.9586C386.562 73.5996 394.748 71.5446 398.706 62.3026C399.126 61.336 399.35 60.296 399.367 59.2424C399.384 58.1888 399.192 57.1422 398.803 56.1629C398.414 55.1836 397.835 54.2907 397.1 53.5357C396.365 52.7806 395.488 52.1783 394.519 51.7631C393.551 51.348 392.51 51.1283 391.456 51.1167C390.403 51.1051 389.357 51.3017 388.379 51.6954C387.402 52.089 386.512 52.6719 385.76 53.4106C385.009 54.1492 384.411 55.0291 384 55.9996C383.294 57.6456 382.223 58.1916 377.252 59.4396C371.838 60.7986 363.652 62.8536 359.694 72.0956C355.736 81.3376 359.889 88.6806 362.639 93.5376C365.163 97.9976 365.507 99.1506 364.802 100.797C364.097 102.443 363.024 102.989 358.054 104.237C352.639 105.596 344.454 107.65 340.496 116.893C336.538 126.136 340.689 133.479 343.439 138.337C345.963 142.797 346.307 143.951 345.601 145.598C344.895 147.245 343.823 147.791 338.852 149.04C333.437 150.399 325.252 152.454 321.294 161.697C320.874 162.663 320.65 163.703 320.633 164.757C320.616 165.81 320.808 166.857 321.197 167.836C321.586 168.816 322.165 169.708 322.9 170.463C323.635 171.219 324.512 171.821 325.481 172.236C326.449 172.651 327.49 172.871 328.544 172.882C329.598 172.894 330.643 172.697 331.621 172.304C332.598 171.91 333.488 171.327 334.24 170.589C334.991 169.85 335.589 168.97 336 168C336.706 166.353 337.778 165.807 342.749 164.558C348.164 163.198 356.349 161.144 360.307 151.9C364.265 142.656 360.113 135.314 357.364 130.456C354.839 125.996 354.496 124.842 355.202 123.195C355.908 121.548 356.979 121.003 361.949 119.755C367.364 118.396 375.549 116.342 379.508 107.1C383.467 97.8576 379.313 90.5146 376.563 85.6566C374.039 81.1966 373.695 80.0436 374.4 78.3976C375.105 76.7516 376.178 76.2056 381.148 74.9586Z" fill="black"/>
<path d="M159.994 55.9999C161.481 56.0008 162.939 55.5873 164.204 54.8059C165.469 54.0244 166.491 52.9059 167.155 51.5759L175.155 35.5759C176.085 33.6806 176.227 31.4948 175.552 29.4948C174.877 27.4947 173.438 25.8426 171.55 24.8985C169.662 23.9544 167.478 23.7947 165.473 24.4543C163.467 25.1139 161.804 26.5393 160.845 28.4199L152.845 44.4199C152.235 45.6392 151.947 46.9942 152.007 48.3563C152.068 49.7183 152.476 51.0423 153.192 52.2024C153.908 53.3626 154.909 54.3204 156.1 54.9851C157.29 55.6497 158.631 55.999 159.994 55.9999V55.9999Z" fill="black"/>
<path d="M194.343 146.343C193.6 147.086 193.011 147.968 192.609 148.939C192.207 149.909 192 150.95 192 152C192 153.051 192.207 154.091 192.609 155.062C193.011 156.032 193.6 156.914 194.343 157.657L210.343 173.657C211.843 175.158 213.878 176.001 216 176.001C218.122 176.001 220.157 175.158 221.657 173.657C223.157 172.157 224 170.122 224 168C224 165.879 223.157 163.844 221.657 162.343L205.657 146.343C204.914 145.6 204.032 145.011 203.062 144.609C202.091 144.207 201.051 144 200 144C198.949 144 197.909 144.207 196.938 144.609C195.968 145.011 195.086 145.6 194.343 146.343Z" fill="black"/>
<path d="M407.167 133.856C408.407 133.856 409.631 133.566 410.739 133.01L426.739 125.01C428.637 124.061 430.08 122.397 430.751 120.384C431.422 118.371 431.266 116.174 430.317 114.277C429.368 112.379 427.704 110.936 425.691 110.265C423.678 109.594 421.481 109.75 419.583 110.699L403.583 118.699C401.97 119.505 400.676 120.832 399.912 122.465C399.148 124.099 398.957 125.942 399.372 127.697C399.787 129.452 400.783 131.015 402.198 132.133C403.613 133.251 405.364 133.858 407.167 133.856V133.856Z" fill="black"/>
<path d="M271.155 188.422C270.206 186.524 268.542 185.081 266.529 184.41C264.517 183.74 262.32 183.896 260.422 184.845L244.422 192.845C243.474 193.31 242.628 193.957 241.931 194.751C241.235 195.545 240.702 196.468 240.365 197.469C240.027 198.469 239.891 199.526 239.963 200.58C240.036 201.633 240.317 202.661 240.789 203.606C241.261 204.55 241.916 205.392 242.715 206.082C243.514 206.772 244.442 207.297 245.445 207.627C246.447 207.957 247.506 208.085 248.559 208.004C249.611 207.923 250.638 207.634 251.578 207.155L267.578 199.155C269.476 198.206 270.919 196.542 271.589 194.529C272.26 192.516 272.104 190.319 271.155 188.422V188.422Z" fill="black"/>
<path d="M312 240C316.747 240 321.387 238.592 325.334 235.955C329.28 233.318 332.357 229.57 334.173 225.184C335.99 220.799 336.465 215.973 335.539 211.318C334.613 206.662 332.327 202.386 328.971 199.029C325.614 195.673 321.338 193.387 316.682 192.461C312.027 191.535 307.201 192.01 302.816 193.827C298.43 195.643 294.682 198.72 292.045 202.666C289.408 206.613 288 211.253 288 216C288.007 222.363 290.538 228.463 295.037 232.963C299.537 237.462 305.637 239.993 312 240V240ZM312 208C313.582 208 315.129 208.469 316.445 209.348C317.76 210.227 318.786 211.477 319.391 212.939C319.997 214.4 320.155 216.009 319.846 217.561C319.538 219.113 318.776 220.538 317.657 221.657C316.538 222.776 315.113 223.538 313.561 223.846C312.009 224.155 310.4 223.997 308.939 223.391C307.477 222.786 306.227 221.76 305.348 220.445C304.469 219.129 304 217.582 304 216C304.002 213.879 304.846 211.846 306.346 210.346C307.846 208.846 309.879 208.002 312 208Z" fill="black"/>
<path d="M232 224C227.253 224 222.613 225.408 218.666 228.045C214.72 230.682 211.643 234.43 209.827 238.816C208.01 243.201 207.535 248.027 208.461 252.682C209.387 257.338 211.673 261.614 215.029 264.971C218.386 268.327 222.662 270.613 227.318 271.539C231.973 272.465 236.799 271.99 241.184 270.173C245.57 268.357 249.318 265.28 251.955 261.334C254.592 257.387 256 252.747 256 248C255.993 241.637 253.462 235.537 248.963 231.037C244.463 226.538 238.363 224.007 232 224V224ZM232 256C230.418 256 228.871 255.531 227.555 254.652C226.24 253.773 225.214 252.523 224.609 251.061C224.003 249.6 223.845 247.991 224.154 246.439C224.462 244.887 225.224 243.462 226.343 242.343C227.462 241.224 228.887 240.462 230.439 240.154C231.991 239.845 233.6 240.003 235.061 240.609C236.523 241.214 237.773 242.24 238.652 243.555C239.531 244.871 240 246.418 240 248C239.998 250.121 239.154 252.154 237.654 253.654C236.154 255.154 234.121 255.998 232 256Z" fill="black"/>
<path d="M144 104C144 108.747 145.408 113.387 148.045 117.334C150.682 121.28 154.43 124.357 158.816 126.173C163.201 127.99 168.027 128.465 172.682 127.539C177.338 126.613 181.614 124.327 184.971 120.971C188.327 117.614 190.613 113.338 191.539 108.682C192.465 104.027 191.99 99.201 190.173 94.8156C188.357 90.4302 185.28 86.6819 181.334 84.0447C177.387 81.4076 172.747 80 168 80C161.637 80.0071 155.537 82.538 151.037 87.0373C146.538 91.5367 144.007 97.637 144 104V104ZM168 96C169.582 96 171.129 96.4692 172.445 97.3482C173.76 98.2273 174.786 99.4767 175.391 100.939C175.997 102.4 176.155 104.009 175.846 105.561C175.538 107.113 174.776 108.538 173.657 109.657C172.538 110.776 171.113 111.538 169.561 111.846C168.009 112.155 166.4 111.997 164.939 111.391C163.477 110.786 162.227 109.76 161.348 108.445C160.469 107.129 160 105.582 160 104C160.002 101.879 160.846 99.8456 162.346 98.3458C163.846 96.846 165.879 96.0024 168 96Z" fill="black"/>
<path d="M344 40C344 35.2533 342.592 30.6131 339.955 26.6663C337.318 22.7195 333.57 19.6434 329.184 17.8269C324.799 16.0104 319.973 15.5351 315.318 16.4612C310.662 17.3872 306.386 19.673 303.029 23.0294C299.673 26.3859 297.387 30.6623 296.461 35.3178C295.535 39.9734 296.01 44.799 297.827 49.1844C299.643 53.5698 302.72 57.3181 306.666 59.9553C310.613 62.5924 315.253 64 320 64C326.363 63.9929 332.463 61.462 336.963 56.9627C341.462 52.4634 343.993 46.363 344 40V40ZM320 48C318.418 48 316.871 47.5308 315.555 46.6518C314.24 45.7727 313.214 44.5233 312.609 43.0615C312.003 41.5997 311.845 39.9911 312.154 38.4393C312.462 36.8874 313.224 35.462 314.343 34.3432C315.462 33.2243 316.887 32.4624 318.439 32.1537C319.991 31.845 321.6 32.0035 323.061 32.609C324.523 33.2145 325.773 34.2399 326.652 35.5555C327.531 36.871 328 38.4178 328 40C327.998 42.121 327.154 44.1545 325.654 45.6542C324.154 47.154 322.121 47.9976 320 48V48Z" fill="black"/>
<path d="M296 168C300.418 168 304 164.418 304 160C304 155.582 300.418 152 296 152C291.582 152 288 155.582 288 160C288 164.418 291.582 168 296 168Z" fill="black"/>
<path d="M224 48C228.418 48 232 44.4183 232 40C232 35.5817 228.418 32 224 32C219.582 32 216 35.5817 216 40C216 44.4183 219.582 48 224 48Z" fill="black"/>
<path d="M360 192C364.418 192 368 188.418 368 184C368 179.582 364.418 176 360 176C355.582 176 352 179.582 352 184C352 188.418 355.582 192 360 192Z" fill="black"/>
<path d="M280 264C284.418 264 288 260.418 288 256C288 251.582 284.418 248 280 248C275.582 248 272 251.582 272 256C272 260.418 275.582 264 280 264Z" fill="black"/>
<path d="M128 232C132.418 232 136 228.418 136 224C136 219.582 132.418 216 128 216C123.582 216 120 219.582 120 224C120 228.418 123.582 232 128 232Z" fill="black"/>
<path d="M92 200C98.6274 200 104 194.627 104 188C104 181.373 98.6274 176 92 176C85.3726 176 80 181.373 80 188C80 194.627 85.3726 200 92 200Z" fill="black"/>
<path d="M444 80C450.627 80 456 74.6274 456 68C456 61.3726 450.627 56 444 56C437.373 56 432 61.3726 432 68C432 74.6274 437.373 80 444 80Z" fill="black"/>
</svg>
