<svg width="19" height="19" viewBox="0 0 19 19" fill="none" xmlns="http://www.w3.org/2000/svg">
<path d="M14.343 19C13.3425 19 12.2889 18.7614 11.1999 18.3019C10.1375 17.8512 9.06617 17.2326 8.02144 16.4814C6.98556 15.7214 5.98509 14.873 5.03774 13.9451C4.09925 12.9995 3.2493 12.0009 2.49674 10.9758C1.73532 9.91535 1.12442 8.85488 0.690587 7.82977C0.230196 6.73395 0 5.67349 0 4.67488C0 3.98558 0.123951 3.33163 0.363001 2.72186C0.610904 2.09442 1.00932 1.51116 1.54939 1.00744C2.23113 0.335814 3.01025 0 3.8425 0C4.18779 0 4.54194 0.0795349 4.84296 0.22093C5.18826 0.38 5.48043 0.618605 5.69292 0.936744L7.74697 3.82651C7.9329 4.08279 8.07456 4.33023 8.17195 4.57767C8.28705 4.84279 8.34902 5.10791 8.34902 5.36419C8.34902 5.7 8.25163 6.02698 8.0657 6.33628C7.9329 6.57488 7.72926 6.83116 7.47251 7.08744L6.87046 7.71488C6.87931 7.74139 6.88816 7.75907 6.89702 7.77674C7.00326 7.96233 7.21575 8.28046 7.62302 8.75767C8.05685 9.25256 8.46412 9.70326 8.87139 10.1186C9.39376 10.6312 9.82759 11.0377 10.2349 11.3735C10.7395 11.7977 11.0671 12.0098 11.2619 12.107L11.2442 12.1512L11.8905 11.5149C12.165 11.2409 12.4306 11.0377 12.6873 10.9051C13.1743 10.6047 13.794 10.5516 14.4138 10.8079C14.644 10.9051 14.8919 11.0377 15.1575 11.2233L18.0969 13.3088C18.4245 13.5298 18.6636 13.8126 18.8052 14.1484C18.938 14.4842 19 14.7935 19 15.1028C19 15.527 18.9026 15.9512 18.7167 16.3488C18.5308 16.7465 18.3006 17.0912 18.0084 17.4093C17.5037 17.966 16.9548 18.3637 16.3173 18.62C15.7064 18.8674 15.0424 19 14.343 19ZM3.8425 1.32558C3.35555 1.32558 2.90401 1.53767 2.47018 1.96186C2.06291 2.34186 1.77959 2.75721 1.60252 3.20791C1.41659 3.66744 1.32805 4.15349 1.32805 4.67488C1.32805 5.49674 1.52283 6.3893 1.9124 7.30837C2.31081 8.24512 2.86859 9.21721 3.57689 10.1893C4.28518 11.1614 5.09087 12.107 5.97624 12.9995C6.8616 13.8744 7.8178 14.6874 8.80056 15.4033C9.75676 16.1014 10.7395 16.667 11.7134 17.0735C13.2274 17.7186 14.644 17.8688 15.8127 17.3828C16.2642 17.1972 16.6626 16.9144 17.0256 16.5079C17.2293 16.287 17.3886 16.0484 17.5214 15.7656C17.6277 15.5447 17.6808 15.3149 17.6808 15.0851C17.6808 14.9437 17.6542 14.8023 17.5834 14.6433C17.5569 14.5902 17.5037 14.493 17.3355 14.3781L14.3961 12.2926C14.219 12.1688 14.0596 12.0805 13.9091 12.0186C13.7144 11.9391 13.6347 11.8595 13.3336 12.0451C13.1566 12.1335 12.9972 12.266 12.8201 12.4428L12.1473 13.1056C11.802 13.4414 11.2707 13.5209 10.8635 13.3707L10.6244 13.2647C10.2614 13.0702 9.83644 12.7698 9.3672 12.3721C8.94222 12.0098 8.48183 11.5856 7.92405 11.0377C7.49021 10.5958 7.05638 10.1274 6.60485 9.60605C6.18872 9.12 5.8877 8.70465 5.70177 8.36L5.59553 8.09488C5.5424 7.89163 5.5247 7.77674 5.5247 7.65302C5.5247 7.33488 5.6398 7.05209 5.86114 6.83116L6.52516 6.14186C6.70224 5.96512 6.83504 5.79721 6.92358 5.64698C6.99441 5.53209 7.02097 5.43488 7.02097 5.34651C7.02097 5.27581 6.99441 5.16977 6.95014 5.06372C6.88816 4.92233 6.79077 4.76326 6.66682 4.59535L4.61277 1.69674C4.52423 1.57302 4.41799 1.48465 4.28518 1.42279C4.14352 1.36093 3.99301 1.32558 3.8425 1.32558ZM11.2442 12.16L11.1025 12.7609L11.3416 12.1423C11.2973 12.1335 11.2619 12.1423 11.2442 12.16Z" fill="white"/>
</svg>
