<svg width="144" height="71" viewBox="0 0 144 71" fill="none" xmlns="http://www.w3.org/2000/svg">
<path d="M60.6147 58.2777C59.3167 58.2777 58.3487 57.3097 58.3487 56.0117C58.3487 54.7137 59.3167 53.7457 60.6147 53.7457C61.4837 53.7457 62.2097 54.1857 62.5947 54.8677L62.2427 55.0657C61.9347 54.4937 61.3297 54.1307 60.6147 54.1307C59.5477 54.1307 58.7447 54.9447 58.7447 56.0117C58.7447 57.0787 59.5477 57.8927 60.6147 57.8927C61.3297 57.8927 61.9347 57.5297 62.2427 56.9467L62.5947 57.1557C62.2097 57.8377 61.4837 58.2777 60.6147 58.2777ZM65.2724 54.1857H63.3914V53.8117H67.5494V54.1857H65.6684V58.2117H65.2724V54.1857ZM70.3591 58.3327L68.1701 53.8117H68.5991L70.5461 57.8487L72.2181 53.8117H72.6471L69.7761 60.7417H69.3471L70.3591 58.3327ZM73.3154 59.6197H72.9194V57.8377H73.3704C73.8764 57.5737 74.1734 56.4957 74.1734 55.0437V53.8117H77.2974V57.8377H78.0674V59.6197H77.6714V58.2117H73.3154V59.6197ZM74.5694 55.0877C74.5694 56.3307 74.3164 57.3207 73.8874 57.8377H76.9014V54.1857H74.5694V55.0877ZM79.314 53.8117H79.71V58.2117H79.314V53.8117ZM79.149 52.0847C79.149 51.8647 79.303 51.7217 79.512 51.7217C79.721 51.7217 79.875 51.8647 79.875 52.0847C79.875 52.2937 79.721 52.4477 79.512 52.4477C79.303 52.4477 79.149 52.2937 79.149 52.0847ZM81.7796 58.2117H81.3176L82.6376 56.3747C81.9336 56.2867 81.4166 55.7697 81.4166 55.0987C81.4166 54.3727 82.0216 53.8117 82.8136 53.8117H84.7716V58.2117H84.3866V56.3857H83.0886L81.7796 58.2117ZM81.8126 55.1097C81.8126 55.6157 82.2526 56.0117 82.8246 56.0117H84.3866V54.1857H82.8356C82.2526 54.1857 81.8126 54.5817 81.8126 55.1097ZM89.958 58.2117H89.562V53.8117H89.958V55.8027H93.159V53.8117H93.555V58.2117H93.159V56.1767H89.958V58.2117ZM95.2193 57.0237C95.2193 56.1987 96.0883 55.6377 97.3643 55.6377C97.8923 55.6377 98.2993 55.7367 98.5633 55.8247V55.3407C98.5633 54.6367 98.0023 54.1307 97.2323 54.1307C96.5723 54.1307 95.9013 54.4937 95.6263 54.9557L95.2853 54.7577C95.6373 54.1747 96.4513 53.7457 97.2433 53.7457C98.2333 53.7457 98.9593 54.4277 98.9593 55.3297V58.2117H98.5633V57.4747C98.2993 57.7937 97.7603 58.2777 96.8583 58.2777C95.9123 58.2777 95.2193 57.7607 95.2193 57.0237ZM97.3753 55.9897C96.3303 55.9897 95.6043 56.4077 95.6043 57.0127C95.6043 57.5407 96.1433 57.9147 96.8803 57.9147C97.9253 57.9147 98.4313 57.1777 98.5633 56.9357V56.1767C98.3543 56.1107 97.9253 55.9897 97.3753 55.9897ZM102.692 58.2777C101.394 58.2777 100.426 57.3097 100.426 56.0117C100.426 54.7137 101.394 53.7457 102.692 53.7457C103.561 53.7457 104.287 54.1857 104.672 54.8677L104.32 55.0657C104.012 54.4937 103.407 54.1307 102.692 54.1307C101.625 54.1307 100.822 54.9447 100.822 56.0117C100.822 57.0787 101.625 57.8927 102.692 57.8927C103.407 57.8927 104.012 57.5297 104.32 56.9467L104.672 57.1557C104.287 57.8377 103.561 58.2777 102.692 58.2777ZM107.35 54.1857H105.469V53.8117H109.627V54.1857H107.746V58.2117H107.35V54.1857ZM110.885 60.7417V53.8117H111.281V54.5817C111.556 54.2517 112.117 53.7457 112.997 53.7457C114.207 53.7457 115.153 54.7137 115.153 56.0007C115.153 57.2987 114.185 58.2777 112.832 58.2777C112.106 58.2777 111.578 58.0027 111.281 57.7827V60.7417H110.885ZM111.281 57.3427C111.512 57.5297 112.062 57.8927 112.81 57.8927C113.943 57.8927 114.757 57.0787 114.757 56.0117C114.757 54.9447 113.954 54.1307 112.942 54.1307C111.985 54.1307 111.424 54.8677 111.281 55.0987V57.3427ZM118.633 58.2777C117.335 58.2777 116.367 57.3097 116.367 56.0117C116.367 54.7137 117.335 53.7457 118.633 53.7457C119.931 53.7457 120.899 54.7137 120.899 56.0117C120.899 57.3097 119.931 58.2777 118.633 58.2777ZM116.763 56.0117C116.763 57.0787 117.566 57.8927 118.633 57.8927C119.7 57.8927 120.503 57.0787 120.503 56.0117C120.503 54.9447 119.7 54.1307 118.633 54.1307C117.566 54.1307 116.763 54.9447 116.763 56.0117ZM122.818 58.2117H122.422V53.8117H122.818V55.8027H124.116C124.215 54.6147 125.15 53.7457 126.371 53.7457C127.669 53.7457 128.637 54.7137 128.637 56.0117C128.637 57.3097 127.669 58.2777 126.371 58.2777C125.139 58.2777 124.193 57.3867 124.116 56.1767H122.818V58.2117ZM126.371 54.1307C125.304 54.1307 124.501 54.9447 124.501 56.0117C124.501 57.0787 125.304 57.8927 126.371 57.8927C127.438 57.8927 128.241 57.0787 128.241 56.0117C128.241 54.9447 127.438 54.1307 126.371 54.1307ZM129.677 57.8707C129.677 57.6397 129.853 57.4637 130.084 57.4637C130.315 57.4637 130.491 57.6397 130.491 57.8707C130.491 58.1017 130.315 58.2777 130.084 58.2777C129.853 58.2777 129.677 58.1017 129.677 57.8707Z" fill="black"/>
<ellipse cx="32.1231" cy="25.6424" rx="22.1538" ry="25.6424" fill="#FF777B"/>
<path d="M9.96924 25.6423H30.8308" stroke="black"/>
<path d="M53.5385 21.5628C54.1292 7.73146 39.3846 2.072 31.9385 0.971191L38.5846 6.60475L44.4923 31.6643L49.2923 41.9602C50.4615 40.9241 52.9477 35.3941 53.5385 21.5628Z" fill="white"/>
<path fill-rule="evenodd" clip-rule="evenodd" d="M30.7643 57.0382C42.7614 57.0382 54.4617 38.473 54.4617 25.0612C54.4617 11.6495 44.7362 0.7771 32.7391 0.7771C16.9846 1.35988 11.0164 11.6495 11.0164 25.0612C11.0164 38.473 18.7672 57.0382 30.7643 57.0382ZM32.2005 56.2345C43.7018 56.2345 53.0255 38.0745 53.0255 25.2335C53.0255 12.3924 43.7018 1.9827 32.2005 1.9827C20.3077 3.10823 11.3755 12.3924 11.3755 25.2335C11.3755 38.0745 20.6991 56.2345 32.2005 56.2345Z" fill="#FF777B"/>
<path d="M50.2154 25.5869C50.2154 38.6453 40.9689 57.1126 29.5628 57.1126C18.1566 57.1126 9.96924 38.6453 9.96924 25.5869C9.96924 12.5285 18.1566 1.94263 29.5628 1.94263C40.9689 1.94263 50.2154 12.5285 50.2154 25.5869Z" fill="#FF777B"/>
<path d="M32.3036 43.3746C32.9464 52.2867 27.366 65.4768 19.361 66.2C11.3559 66.9233 4.64058 54.7549 3.9978 45.8427C3.35502 36.9305 8.64023 29.2704 16.6453 28.5472C24.6504 27.8239 31.6609 34.4624 32.3036 43.3746Z" fill="#3EE2F5"/>
<path d="M20.3032 28.423C19.6057 28.3785 18.3788 27.9432 17.663 28.0039C3.4525 27.2788 0.414751 41.0779 1.80006 47.8646C3.84443 55.9613 11.088 64.5829 18.6367 65.6566C10.7476 65.3044 3.62633 54.0161 2.93894 45.5566C2.2202 36.7114 8.37393 28.9698 16.6837 28.2652C17.6884 28.18 19.3374 28.3035 20.3032 28.423Z" fill="#3EE2F5"/>
<path d="M34.5231 56.1412C36.1106 55.7482 37.6492 55.1558 39.3231 54.0043C41.515 52.4966 43.8072 50.2433 45.4154 48.3708C46.9332 46.4196 48.1847 44.1004 49.0645 41.7081C50.0202 39.1096 50.247 35.5135 50.3539 32.706C50.4628 29.8448 50.5386 27.4963 50.5402 25.6758C50.5488 16.2695 45.5444 33.7979 42.579 42.5992C39.1315 52.8315 32.7833 56.5719 34.5231 56.1412Z" fill="#FF777B"/>
<path d="M38.0139 53.3195C37.6086 53.7732 31.4182 2.43077 31.4182 2.01731C31.4182 1.60386 36.6239 2.25824 36.3692 2.5253C36.1146 2.79236 38.2223 14.9892 38.8117 23.3806C41.1762 24.2878 46.2008 25.3765 49.7674 22.4733C51.5178 21.0485 51.6587 23.3806 50.1727 25.1951C49.894 25.6487 46.9303 27.0095 38.8117 26.5559L38.8493 27.0929C39.75 39.9704 40.5513 51.4281 40.4456 51.5051C40.2146 51.6733 38.4192 52.8659 38.0139 53.3195Z" fill="white"/>
<path d="M51.084 44.5256C51.5801 44.199 52.8932 42.5007 53.5936 41.6515C55.4612 39.4306 58.0291 36.4585 60.5971 35.7073C60.8305 35.6419 61.064 35.6093 61.2682 35.6093C61.9686 35.6093 62.5814 36.0339 62.5814 36.9484C62.5814 37.6669 62.2896 38.5161 62.0853 39.0387C61.4141 40.835 60.4803 42.468 59.8675 44.0031C59.7216 44.395 59.4006 45.1789 59.4006 45.4728C59.4006 45.6688 59.5757 45.7668 59.78 45.7668C60.2177 45.7668 60.9181 45.4728 61.239 45.3095C62.3187 44.7543 63.3985 43.6438 64.7408 42.1741C65.266 41.6188 66.0831 42.5007 65.6162 43.0559C64.0696 44.8523 62.3479 46.3873 60.6846 47.0405C60.2761 47.2038 59.7216 47.3671 59.2255 47.3671C58.3793 47.3671 57.9124 46.8119 57.9124 45.7668C57.9124 44.493 58.6419 42.8273 59.3423 41.3249C59.6924 40.5737 60.6846 38.5814 60.6846 38.0915C60.6846 37.9282 60.5679 37.8302 60.3636 37.8302C59.8384 37.8302 58.7878 38.3854 58.2626 38.7774C55.8989 40.639 53.7978 43.0559 51.8427 45.4401C49.7125 48.053 48.0783 50.6659 46.2107 53.6706C45.8606 54.2585 45.3645 55.271 44.6058 55.271C44.3723 55.271 44.1681 54.9444 44.1681 54.6505C44.1681 54.1932 44.5182 53.6706 44.7225 53.344C46.9695 49.3921 49.8 44.0684 51.6384 39.6592C51.2007 39.6592 49.0997 42.5007 48.4577 43.0559C47.8449 43.6765 47.1737 42.86 47.6698 42.1414C48.7495 41.1943 49.8 39.8878 50.8214 38.5487C51.9011 37.1443 52.6306 36.2625 53.7978 35.5113C54.0313 35.3807 54.2356 35.2827 54.4107 35.2827C54.8484 35.2827 55.1402 35.8052 55.1402 36.3278C55.1402 37.177 54.6733 37.8629 54.2064 38.5161C53.1559 39.9858 51.6968 42.4354 51.084 44.5256Z" fill="#FF777B"/>
<path d="M87.6448 33.323C87.6448 33.8456 87.032 33.9762 86.4192 33.9762C84.9601 33.9762 83.5594 33.4863 81.5751 33.4863C79.62 33.4863 77.6357 33.715 75.8848 33.9762C74.6008 34.1722 74.0172 34.3682 73.7254 34.3682C73.5503 34.3682 73.3752 34.2049 73.3752 33.9762C73.3752 33.323 74.8343 33.0617 75.6805 32.8331C77.6357 32.3105 80.6121 32.0166 83.5886 32.0166C84.3182 32.0166 85.0477 32.0493 85.7772 32.0819C86.5067 32.1146 87.6448 32.2452 87.6448 33.323ZM83.8804 39.0387C82.8299 39.104 81.9837 40.0511 81.2833 40.7697C79.8826 42.2394 78.6278 43.8724 77.2855 45.5708C76.9061 46.0934 76.0891 47.8244 75.3012 47.8244C74.9802 47.8244 74.7467 47.5304 74.7467 47.1385C74.7467 46.6813 74.951 46.0934 75.0969 45.7668C75.9432 43.9051 77.4606 40.933 77.4606 39.1693C77.4606 38.7447 77.4022 38.1242 76.8478 38.1242C76.1474 38.1242 75.0094 39.0387 74.5133 39.5286C72.7624 41.2596 70.9532 43.7418 70.0194 46.518C69.8151 47.1058 69.5525 47.7917 69.0272 47.7917C68.6479 47.7917 68.3269 47.5304 68.3269 47.0079C68.3269 46.518 68.5603 45.9627 68.7062 45.5381C69.5233 43.4478 70.4279 42.5333 71.1574 40.2144C71.3034 39.6919 71.4784 38.8753 71.4784 38.2221C71.4784 37.6996 71.3617 37.275 71.0407 37.275C70.0777 37.2423 68.0642 40.5737 65.6422 43.0559C64.9127 43.8071 64.1832 42.6966 64.796 42.1741C66.2842 40.8677 68.181 37.9282 69.9027 36.5238C70.3112 36.1972 70.8656 35.7726 71.566 35.7726C72.5581 35.7726 72.9375 36.9484 72.9375 38.2875C72.9375 38.7774 72.8791 39.2999 72.7916 39.7898C73.6962 39.0387 75.5054 36.3278 77.6065 36.3278C78.5695 36.3278 79.0655 37.0463 79.0655 38.1895C79.0655 39.3979 78.657 40.933 78.336 41.9781C78.1317 42.6966 79.7075 40.933 80.1452 40.4757C81.1082 39.4959 81.8086 38.5487 83.0634 37.6669C83.4427 37.4383 84.0847 37.079 84.61 37.079C85.2228 37.079 85.6021 37.6342 85.6021 38.3854C85.6021 39.4632 85.0185 40.9003 84.5808 41.9128C84.1139 43.0559 83.326 45.2115 83.326 46.1587C83.326 46.322 83.326 46.6159 83.5886 46.6159C84.5224 46.6159 87.7907 43.3825 88.8121 42.2394C89.3373 41.6515 90.2128 42.5333 89.5999 43.1866C88.5494 44.297 86.6526 46.2567 85.3979 47.1712C84.931 47.5304 83.7345 48.4123 82.8007 48.4123C82.042 48.4123 81.5751 47.7264 81.5751 46.8446C81.5751 45.5381 82.3338 43.8071 82.6548 42.8926C83.1509 41.5535 83.8513 40.4104 83.8804 39.0387Z" fill="#FF777B"/>
<path d="M19.6349 66.6151C19.9213 65.9218 20.8547 65.8097 21.2822 66.4174V66.4174C21.6942 67.0032 21.3242 67.8245 20.6097 67.9103V67.9103C19.8951 67.9961 19.3588 67.2835 19.6349 66.6151V66.6151Z" fill="#3EE2F5"/>
<path d="M31.431 57.1564C31.8107 56.4645 32.8047 56.4645 33.1844 57.1564L33.5735 57.8656C33.9392 58.5321 33.457 59.3467 32.6968 59.3467H31.9186C31.1584 59.3467 30.6762 58.5321 31.0419 57.8656L31.431 57.1564Z" fill="#FF777B"/>
<path d="M31.0618 57.1564C31.4414 56.4645 32.4355 56.4645 32.8152 57.1564L33.2043 57.8656C33.57 58.5321 33.0878 59.3467 32.3276 59.3467H31.5493C30.7892 59.3467 30.307 58.5321 30.6726 57.8656L31.0618 57.1564Z" fill="#FF777B"/>
</svg>
