<svg width="459" height="267" viewBox="0 0 459 267" fill="none" xmlns="http://www.w3.org/2000/svg">
<path d="M221.063 168.864C217.995 168.864 215.707 166.576 215.707 163.508C215.707 160.44 217.995 158.152 221.063 158.152C223.117 158.152 224.833 159.192 225.743 160.804L224.911 161.272C224.183 159.92 222.753 159.062 221.063 159.062C218.541 159.062 216.643 160.986 216.643 163.508C216.643 166.03 218.541 167.954 221.063 167.954C222.753 167.954 224.183 167.096 224.911 165.718L225.743 166.212C224.833 167.824 223.117 168.864 221.063 168.864ZM232.072 159.192H227.626V158.308H237.454V159.192H233.008V168.708H232.072V159.192ZM244.095 168.994L238.921 158.308H239.935L244.537 167.85L248.489 158.308H249.503L242.717 174.688H241.703L244.095 168.994ZM251.083 172.036H250.147V167.824H251.213C252.409 167.2 253.111 164.652 253.111 161.22V158.308H260.495V167.824H262.315V172.036H261.379V168.708H251.083V172.036ZM254.047 161.324C254.047 164.262 253.449 166.602 252.435 167.824H259.559V159.192H254.047V161.324ZM265.261 158.308H266.197V168.708H265.261V158.308ZM264.871 154.226C264.871 153.706 265.235 153.368 265.729 153.368C266.223 153.368 266.587 153.706 266.587 154.226C266.587 154.72 266.223 155.084 265.729 155.084C265.235 155.084 264.871 154.72 264.871 154.226ZM271.089 168.708H269.997L273.117 164.366C271.453 164.158 270.231 162.936 270.231 161.35C270.231 159.634 271.661 158.308 273.533 158.308H278.161V168.708H277.251V164.392H274.183L271.089 168.708ZM271.167 161.376C271.167 162.572 272.207 163.508 273.559 163.508H277.251V159.192H273.585C272.207 159.192 271.167 160.128 271.167 161.376ZM290.42 168.708H289.484V158.308H290.42V163.014H297.986V158.308H298.922V168.708H297.986V163.898H290.42V168.708ZM302.855 165.9C302.855 163.95 304.909 162.624 307.925 162.624C309.173 162.624 310.135 162.858 310.759 163.066V161.922C310.759 160.258 309.433 159.062 307.613 159.062C306.053 159.062 304.467 159.92 303.817 161.012L303.011 160.544C303.843 159.166 305.767 158.152 307.639 158.152C309.979 158.152 311.695 159.764 311.695 161.896V168.708H310.759V166.966C310.135 167.72 308.861 168.864 306.729 168.864C304.493 168.864 302.855 167.642 302.855 165.9ZM307.951 163.456C305.481 163.456 303.765 164.444 303.765 165.874C303.765 167.122 305.039 168.006 306.781 168.006C309.251 168.006 310.447 166.264 310.759 165.692V163.898C310.265 163.742 309.251 163.456 307.951 163.456ZM320.518 168.864C317.45 168.864 315.162 166.576 315.162 163.508C315.162 160.44 317.45 158.152 320.518 158.152C322.572 158.152 324.288 159.192 325.198 160.804L324.366 161.272C323.638 159.92 322.208 159.062 320.518 159.062C317.996 159.062 316.098 160.986 316.098 163.508C316.098 166.03 317.996 167.954 320.518 167.954C322.208 167.954 323.638 167.096 324.366 165.718L325.198 166.212C324.288 167.824 322.572 168.864 320.518 168.864ZM331.527 159.192H327.081V158.308H336.909V159.192H332.463V168.708H331.527V159.192ZM339.884 174.688V158.308H340.82V160.128C341.47 159.348 342.796 158.152 344.876 158.152C347.736 158.152 349.972 160.44 349.972 163.482C349.972 166.55 347.684 168.864 344.486 168.864C342.77 168.864 341.522 168.214 340.82 167.694V174.688H339.884ZM340.82 166.654C341.366 167.096 342.666 167.954 344.434 167.954C347.112 167.954 349.036 166.03 349.036 163.508C349.036 160.986 347.138 159.062 344.746 159.062C342.484 159.062 341.158 160.804 340.82 161.35V166.654ZM358.198 168.864C355.13 168.864 352.842 166.576 352.842 163.508C352.842 160.44 355.13 158.152 358.198 158.152C361.266 158.152 363.554 160.44 363.554 163.508C363.554 166.576 361.266 168.864 358.198 168.864ZM353.778 163.508C353.778 166.03 355.676 167.954 358.198 167.954C360.72 167.954 362.618 166.03 362.618 163.508C362.618 160.986 360.72 159.062 358.198 159.062C355.676 159.062 353.778 160.986 353.778 163.508ZM368.09 168.708H367.154V158.308H368.09V163.014H371.158C371.392 160.206 373.602 158.152 376.488 158.152C379.556 158.152 381.844 160.44 381.844 163.508C381.844 166.576 379.556 168.864 376.488 168.864C373.576 168.864 371.34 166.758 371.158 163.898H368.09V168.708ZM376.488 159.062C373.966 159.062 372.068 160.986 372.068 163.508C372.068 166.03 373.966 167.954 376.488 167.954C379.01 167.954 380.908 166.03 380.908 163.508C380.908 160.986 379.01 159.062 376.488 159.062ZM384.301 167.902C384.301 167.356 384.717 166.94 385.263 166.94C385.809 166.94 386.225 167.356 386.225 167.902C386.225 168.448 385.809 168.864 385.263 168.864C384.717 168.864 384.301 168.448 384.301 167.902Z" fill="white"/>
<ellipse cx="102.392" cy="77.5099" rx="70.6154" ry="77.5099" fill="#FF777B"/>
<path d="M31.7769 77.51H98.2731" stroke="black"/>
<path d="M170.654 65.1789C172.537 23.3705 125.538 6.26348 101.804 2.93604L122.988 19.9647L141.819 95.7131L157.119 126.834C160.846 123.703 168.771 106.987 170.654 65.1789Z" fill="white"/>
<path d="M74.7346 262.477C71.7923 256.605 66.6758 253.489 74.7346 245.448C78.8538 241.338 96.3901 242.022 90.9007 228.685C88.8577 223.722 99.45 219.14 99.45 210.216V210.216C99.45 204.328 93.4105 197.311 96.8663 192.536C101.06 186.743 104.326 179.678 101.526 173.81" stroke="black"/>
<path d="M76.5 266V266C78.0625 261.323 75.0063 256.694 70.5191 254.633C60.1601 249.876 77.7141 244.348 74.7346 238.402C70.3231 229.598 60.579 231.991 65.3193 227C70.4712 221.575 85.3269 227.531 67.6731 227.245C61.3575 227.142 61.207 223.649 62.7783 219.851C65.5653 213.114 67.04 206.559 64.7308 199.647V199.647" stroke="black"/>
<path fill-rule="evenodd" clip-rule="evenodd" d="M98.0611 172.411C136.302 172.411 173.597 116.293 173.597 75.7532C173.597 35.2131 142.597 2.34888 104.356 2.34888C54.1385 4.11047 35.1148 35.2131 35.1148 75.7532C35.1148 116.293 59.8204 172.411 98.0611 172.411ZM102.639 169.982C139.3 169.982 169.019 115.089 169.019 76.2738C169.019 37.4588 139.3 5.99306 102.639 5.99306C64.7308 9.39523 36.2593 37.4588 36.2593 76.2738C36.2593 115.089 65.9785 169.982 102.639 169.982Z" fill="#FF777B"/>
<path d="M160.062 77.3423C160.062 116.814 130.588 172.636 94.2313 172.636C57.8742 172.636 31.7769 116.814 31.7769 77.3423C31.7769 37.8704 57.8742 5.87207 94.2313 5.87207C130.588 5.87207 160.062 37.8704 160.062 77.3423Z" fill="#FF777B"/>
<path d="M102.968 131.109C105.017 158.048 87.2292 197.918 61.7131 200.105C36.1969 202.291 14.7918 165.509 12.743 138.57C10.6941 111.631 27.5407 88.4764 53.0569 86.2902C78.5731 84.104 100.919 104.17 102.968 131.109Z" fill="#3EE2F5"/>
<path d="M64.7165 85.9147C62.4933 85.7803 58.5823 84.4647 56.3008 84.6481C11.0048 82.4564 1.32202 124.167 5.73769 144.682C12.2541 169.156 35.3431 195.216 59.4044 198.462C34.258 197.397 11.5589 163.276 9.36786 137.705C7.07689 110.968 26.6919 87.5676 53.1792 85.4379C56.3817 85.1804 61.6379 85.5537 64.7165 85.9147Z" fill="#3EE2F5"/>
<path d="M110.042 169.7C115.103 168.512 120.007 166.721 125.342 163.241C132.329 158.683 139.635 151.872 144.762 146.212C149.6 140.314 153.589 133.304 156.393 126.072C159.439 118.218 160.162 107.348 160.503 98.8616C160.85 90.213 161.092 83.114 161.097 77.6111C161.124 49.1785 145.173 102.162 135.721 128.766C124.732 159.695 104.497 171.002 110.042 169.7Z" fill="#FF777B"/>
<path d="M121.169 161.171C119.877 162.542 100.145 7.3477 100.145 6.09794C100.145 4.84819 116.739 6.82619 115.927 7.63344C115.115 8.44069 121.834 45.3084 123.712 70.6732C131.249 73.4156 147.265 76.7064 158.633 67.9309C164.213 63.6239 164.662 70.6732 159.925 76.1579C159.037 77.5291 149.59 81.6426 123.712 80.2714L123.832 81.8947C126.703 120.82 129.257 155.453 128.921 155.686C128.184 156.194 122.461 159.799 121.169 161.171Z" fill="white"/>
<path d="M162.83 134.589C164.412 133.602 168.597 128.468 170.83 125.901C176.782 119.188 184.968 110.204 193.153 107.933C193.897 107.736 194.641 107.637 195.292 107.637C197.525 107.637 199.478 108.92 199.478 111.685C199.478 113.857 198.548 116.423 197.897 118.003C195.758 123.433 192.781 128.369 190.828 133.009C190.363 134.194 189.34 136.563 189.34 137.452C189.34 138.044 189.898 138.34 190.549 138.34C191.944 138.34 194.176 137.452 195.199 136.958C198.641 135.28 202.083 131.923 206.361 127.481C208.036 125.802 210.64 128.468 209.152 130.146C204.222 135.576 198.734 140.216 193.432 142.191C192.13 142.684 190.363 143.178 188.781 143.178C186.084 143.178 184.596 141.499 184.596 138.34C184.596 134.49 186.921 129.455 189.153 124.914C190.27 122.643 193.432 116.621 193.432 115.14C193.432 114.646 193.06 114.35 192.409 114.35C190.735 114.35 187.386 116.029 185.712 117.213C178.178 122.841 171.481 130.146 165.249 137.353C158.459 145.251 153.25 153.149 147.297 162.232C146.181 164.009 144.599 167.069 142.181 167.069C141.437 167.069 140.786 166.082 140.786 165.193C140.786 163.811 141.902 162.232 142.553 161.244C149.715 149.299 158.738 133.207 164.598 119.879C163.202 119.879 156.505 128.468 154.459 130.146C152.506 132.022 150.366 129.554 151.948 127.382C155.389 124.519 158.738 120.57 161.993 116.522C165.435 112.277 167.76 109.612 171.481 107.341C172.225 106.946 172.876 106.65 173.434 106.65C174.829 106.65 175.759 108.229 175.759 109.809C175.759 112.376 174.271 114.449 172.783 116.423C169.434 120.866 164.784 128.27 162.83 134.589Z" fill="#FF777B"/>
<path d="M279.368 100.726C279.368 102.306 277.415 102.701 275.461 102.701C270.81 102.701 266.346 101.22 260.021 101.22C253.789 101.22 247.464 101.911 241.883 102.701C237.79 103.293 235.93 103.885 235 103.885C234.442 103.885 233.884 103.392 233.884 102.701C233.884 100.726 238.534 99.9365 241.232 99.2455C247.464 97.6659 256.951 96.7773 266.439 96.7773C268.764 96.7773 271.089 96.8761 273.415 96.9748C275.74 97.0735 279.368 97.4684 279.368 100.726ZM267.369 118.003C264.02 118.201 261.323 121.064 259.091 123.235C254.626 127.678 250.626 132.614 246.348 137.748C245.138 139.328 242.534 144.56 240.022 144.56C238.999 144.56 238.255 143.671 238.255 142.487C238.255 141.105 238.906 139.328 239.371 138.34C242.069 132.713 246.906 123.729 246.906 118.398C246.906 117.115 246.72 115.239 244.952 115.239C242.72 115.239 239.092 118.003 237.511 119.484C231.93 124.716 226.163 132.219 223.187 140.611C222.536 142.388 221.699 144.461 220.024 144.461C218.815 144.461 217.792 143.671 217.792 142.092C217.792 140.611 218.536 138.933 219.001 137.649C221.606 131.331 224.489 128.567 226.814 121.557C227.279 119.978 227.838 117.509 227.838 115.535C227.838 113.955 227.465 112.672 226.442 112.672C223.373 112.573 216.955 122.643 209.235 130.146C206.909 132.417 204.584 129.06 206.537 127.481C211.281 123.532 217.327 114.646 222.815 110.401C224.117 109.414 225.884 108.131 228.117 108.131C231.279 108.131 232.488 111.685 232.488 115.732C232.488 117.213 232.302 118.793 232.023 120.274C234.907 118.003 240.674 109.809 247.371 109.809C250.44 109.809 252.021 111.981 252.021 115.436C252.021 119.089 250.719 123.729 249.696 126.888C249.045 129.06 254.068 123.729 255.463 122.347C258.532 119.385 260.765 116.522 264.764 113.857C265.974 113.166 268.02 112.08 269.694 112.08C271.648 112.08 272.857 113.758 272.857 116.029C272.857 119.287 270.996 123.63 269.601 126.691C268.113 130.146 265.602 136.662 265.602 139.525C265.602 140.019 265.602 140.907 266.439 140.907C269.415 140.907 279.833 131.133 283.088 127.678C284.763 125.901 287.553 128.567 285.6 130.541C282.251 133.898 276.205 139.821 272.206 142.585C270.717 143.671 266.904 146.337 263.927 146.337C261.509 146.337 260.021 144.264 260.021 141.598C260.021 137.649 262.439 132.417 263.462 129.653C265.044 125.605 267.276 122.15 267.369 118.003Z" fill="#FF777B"/>
<path d="M64.0028 198.107C64.3098 197.402 65.2646 197.294 65.7228 197.911L69.7235 203.305C70.1825 203.924 69.7992 204.807 69.034 204.894L62.3527 205.654C61.5874 205.742 61.0147 204.967 61.3222 204.261L64.0028 198.107Z" fill="#3EE2F5"/>
<path d="M102.115 169.434C102.5 168.769 103.461 168.769 103.846 169.434L108.738 177.888C109.123 178.554 108.642 179.389 107.872 179.389H98.0896C97.3194 179.389 96.8383 178.554 97.224 177.888L102.115 169.434Z" fill="#FF777B"/>
<path d="M100.938 169.434C101.323 168.769 102.284 168.769 102.669 169.434L107.561 177.888C107.946 178.554 107.465 179.389 106.695 179.389H96.9127C96.1425 179.389 95.6614 178.554 96.0471 177.888L100.938 169.434Z" fill="#FF777B"/>
</svg>
